{"title":"Silk Season 1 x264 Legal Drama BBC RB58","uid":9678309,"size":2791752384,"categoryP":"video","categoryS":"tv_shows","magnet":"?xt=urn:btih:70e25cbd38f408d23335ddffebffceb4d1321e3b&amp;dn=Silk+Season+1+x264+Legal+Drama+BBC+RB58&amp;tr=udp%3A%2F%2Ftracker.openbittorrent.com%3A80&amp;tr=udp%3A%2F%2Fopen.demonii.com%3A1337&amp;tr=udp%3A%2F%2Ftracker.coppersurfer.tk%3A6969&amp;tr=udp%3A%2F%2Fexodus.desync.com%3A6969","seeders":18,"leechers":4,"uploader":"RedBaron58","files":6,"time":1393608891,"description":"Silk BBC Season 1 (2011) 6 part series of 1 hour episodes x264 format mp4. \n &lt;a href=&quot;\nhttp://www.imdb.com/title/tt1717455/&quot; rel=&quot;nofollow&quot; target=&quot;_NEW&quot;&gt;\nhttp://www.imdb.com/title/tt1717455/&lt;/a&gt;\n\nPlease be patient My upload speed is limited, but I am online most the time and during the night.\nThank you for your kind comments and thumbs ups on my other torrents, your feedback is welcome.\n\n\nAbout the Series:\nSilk follows a set of barristers from a chambers in London. The series' main focus is on \nMartha Costello (Maxine Peake) and her ambition to become Queen's Counsel as well as on her rival, \nClive Reader (Rupert Penry-Jones). Martha achieves her ambition at the end of Series One, \nleaving Clive disappointed.\n\n\nI hope you enjoy.\n\n\nTechnical:\n\nAll six episodes encoded to same settings.\n\nGeneral\nComplete name                            : F:Silk S01Silk S01E01 x264 RB58.mp4\nFormat                                   : MPEG-4\nFormat profile                           : Base Media / Version 2\nCodec ID                                 : mp42\nFile size                                : 432 MiB\nDuration                                 : 57mn 10s\nOverall bit rate mode                    : Variable\nOverall bit rate                         : 1 057 Kbps\nEncoded date                             : UTC 2014-02-28 10:24:28\nTagged date                              : UTC 2014-02-28 10:38:42\nWriting application                      : HandBrake 0.9.8 2012071700\n\nVideo\nID                                       : 1\nFormat                                   : AVC\nFormat/Info                              : Advanced Video Codec\nFormat profile                           : &lt;a class=&quot;__cf_email__&quot; href=&quot;/cdn-cgi/l/email-protection&quot; data-cfemail=&quot;397458505779750a1709&quot;&gt;[email&amp;#160;protected]&lt;/a&gt;&lt;script cf-hash='f9e31' type=&quot;text/javascript&quot;&gt;\n/* &lt;![CDATA[ */!function(){try{var t=&quot;currentScript&quot;in document?document.currentScript:function(){for(var t=document.getElementsByTagName(&quot;script&quot;),e=t.length;e--;)if(t[e].getAttribute(&quot;cf-hash&quot;))return t[e]}();if(t&amp;&amp;t.previousSibling){var e,r,n,i,c=t.previousSibling,a=c.getAttribute(&quot;data-cfemail&quot;);if(a){for(e=&quot;&quot;,r=parseInt(a.substr(0,2),16),n=2;a.length-n;n+=2)i=parseInt(a.substr(n,2),16)^r,e+=String.fromCharCode(i);e=document.createTextNode(e),c.parentNode.replaceChild(e,c)}}}catch(u){}}();/* ]]&gt; */&lt;/script&gt;\nFormat settings, CABAC                   : Yes\nFormat settings, ReFrames                : 4 frames\nCodec ID                                 : avc1\nCodec ID/Info                            : Advanced Video Coding\nDuration                                 : 57mn 10s\nBit rate mode                            : Variable\nBit rate                                 : 900 Kbps\nWidth                                    : 720 pixels\nHeight                                   : 576 pixels\nDisplay aspect ratio                     : 16:9\nFrame rate mode                          : Constant\nFrame rate                               : 25.000 fps\nStandard                                 : PAL\nColor space                              : YUV\nChroma subsampling                       : 4:2:0\nBit depth                                : 8 bits\nScan type                                : Progressive\nBits/(Pixel*Frame)                       : 0.087\nStream size                              : 368 MiB (85%)\nWriting library                          : x264 core 120\nEncoding settings                        : cabac=1 / ref=1 / deblock=1:0:0 / analyse=0x1:0x111 / me=hex / subme=2 / psy=1 / psy_rd=1.00:0.00 / mixed_ref=0 / me_range=16 / chroma_me=1 / trellis=0 / 8x8dct=0 / cqm=0 / deadzone=21,11 / fast_pskip=1 / chroma_qp_offset=0 / threads=3 / sliced_threads=0 / nr=0 / decimate=1 / interlaced=0 / bluray_compat=0 / constrained_intra=0 / bframes=3 / b_pyramid=2 / b_adapt=1 / b_bias=0 / direct=1 / weightb=1 / open_gop=0 / weightp=1 / keyint=250 / keyint_min=25 / scenecut=40 / intra_refresh=0 / rc_lookahead=10 / rc=2pass / mbtree=1 / bitrate=900 / ratetol=1.0 / qcomp=0.60 / qpmin=3 / qpmax=69 / qpstep=4 / cplxblur=20.0 / qblur=0.5 / ip_ratio=1.40 / aq=1:1.00\nEncoded date                             : UTC 2014-02-28 10:24:28\nTagged date                              : UTC 2014-02-28 10:38:42\nColor primaries                          : BT.601 NTSC\nTransfer characteristics                 : BT.709\nMatrix coefficients                      : BT.601\n\nAudio\nID                                       : 2\nFormat                                   : MPEG Audio\nFormat version                           : Version 1\nFormat profile                           : Layer 3\nCodec ID                                 : 69\nDuration                                 : 57mn 10s\nBit rate mode                            : Variable\nBit rate                                 : 154 Kbps\nMaximum bit rate                         : 175 Kbps\nChannel(s)                               : 2 channels\nSampling rate                            : 48.0 KHz\nCompression mode                         : Lossy\nDelay relative to video                  : 80ms\nStream size                              : 62.8 MiB (15%)\nLanguage                                 : English\nEncoded date                             : UTC 2014-02-28 10:24:28\nTagged date                              : UTC 2014-02-28 10:38:41\n\nText\nID                                       : 3\nFormat                                   : Apple text\nCodec ID                                 : text\nDuration                                 : 57mn 10s\nBit rate mode                            : Constant\nBit rate                                 : 0 bps\nStream size                              : 138 Bytes (0%)\nEncoded date                             : UTC 2014-02-28 10:24:28\nTagged date                              : UTC 2014-02-28 10:38:41","torrent":{"xt":"urn:btih:70e25cbd38f408d23335ddffebffceb4d1321e3b","amp;dn":"Silk+Season+1+x264+Legal+Drama+BBC+RB58","amp;tr":["udp%3A%2F%2Ftracker.openbittorrent.com%3A80","udp%3A%2F%2Fopen.demonii.com%3A1337","udp%3A%2F%2Ftracker.coppersurfer.tk%3A6969","udp%3A%2F%2Fexodus.desync.com%3A6969"],"infoHash":"70e25cbd38f408d23335ddffebffceb4d1321e3b","infoHashBuffer":{"type":"Buffer","data":[112,226,92,189,56,244,8,210,51,53,221,255,235,255,206,180,209,50,30,59]},"announce":[],"urlList":[]}}